<svg xmlns="http://www.w3.org/2000/svg" style="display:none">

<!-- TREE ICON  -->
<symbol id="icon-tree" viewBox="0 0 448 512"><path d="M413.8 447.1L256 448l0 31.99C256 497.7 241.8 512 224.1 512c-17.67 0-32.1-14.32-32.1-31.99l0-31.99l-158.9-.0099c-28.5 0-43.69-34.49-24.69-56.4l68.98-79.59H62.22c-25.41 0-39.15-29.8-22.67-49.13l60.41-70.85H89.21c-21.28 0-32.87-22.5-19.28-37.31l134.8-146.5c10.4-11.3 28.22-11.3 38.62-.0033l134.9 146.5c13.62 14.81 2.001 37.31-19.28 37.31h-10.77l60.35 70.86c16.46 19.34 2.716 49.12-22.68 49.12h-15.2l68.98 79.59C458.7 413.7 443.1 447.1 413.8 447.1z"/></symbol>

<!-- BURGER MENU ICON  -->
<symbol id="burger-menu" viewBox="0 0 28 28"><path d="M3 7C3 6.44771 3.44772 6 4 6H24C24.5523 6 25 6.44771 25 7C25 7.55229 24.5523 8 24 8H4C3.44772 8 3 7.55229 3 7Z"/><path d="M3 14C3 13.4477 3.44772 13 4 13H24C24.5523 13 25 13.4477 25 14C25 14.5523 24.5523 15 24 15H4C3.44772 15 3 14.5523 3 14Z"/><path d="M4 20C3.44772 20 3 20.4477 3 21C3 21.5523 3.44772 22 4 22H24C24.5523 22 25 21.5523 25 21C25 20.4477 24.5523 20 24 20H4Z" /></symbol>


<!-- TREES ICON  -->
<symbol id="trees-icon" viewBox="0 0 256 227"><path d="M209,208.5v-46h47l-29.6-35.2H246l-30-35.5h19.6l-35.5-42.1l-25.3,30l22.1,26.7h-22l33,39h-62v17h45v44 c-15.9-1.6-33.7-2.7-53-2.9v-66.1h53l-33-39h22l-34-41h22l-40-47l-40,47h22l-34,40h23l-34,40h53v66.1c-19.2,0.2-37.1,1.2-53,2.8 l0-43.8h45v-17H48l34-40H59l22.3-25.9L56.1,49.8L21,91.5h19l-30,36h20l-30,35h47v46c-29,4-47,10-47,17h256 C256,218.6,237.7,212.5,209,208.5z"/></symbol>

<!-- MINUS ICON  -->
<symbol id="minus-icon" viewBox="0 0 512 512"><path d="M417.4,224H94.6C77.7,224,64,238.3,64,256c0,17.7,13.7,32,30.6,32h322.8c16.9,0,30.6-14.3,30.6-32  C448,238.3,434.3,224,417.4,224z"/></symbol>

<!-- CHECK ICON  -->
<symbol id="check-icon" viewBox="0 0 512 512"><path d="M480 128c0 8.188-3.125 16.38-9.375 22.62l-256 256C208.4 412.9 200.2 416 192 416s-16.38-3.125-22.62-9.375l-128-128C35.13 272.4 32 264.2 32 256c0-18.28 14.95-32 32-32c8.188 0 16.38 3.125 22.62 9.375L192 338.8l233.4-233.4C431.6 99.13 439.8 96 448 96C465.1 96 480 109.7 480 128z"/></symbol>

</svg>